<svg width="61" height="86" viewBox="0 0 61 86" fill="none" xmlns="http://www.w3.org/2000/svg">
<g clip-path="url(#clip0_25_2)">
<path d="M40.6099 0.0940704C39.4389 0.376259 38.5199 1.4647 38.1318 3.02345C37.7233 4.66954 37.7778 7.26298 38.268 9.33235C38.4109 9.9236 38.9964 11.7578 39.0713 11.8384C39.0917 11.8653 39.3232 11.0255 39.5819 9.97063L40.0449 8.04907L39.9632 7.10844C39.8474 5.85876 39.9019 4.38063 40.0925 3.59454C40.358 2.49267 40.7529 2.01563 41.3997 2.01563H41.7332V2.31126C41.7332 2.47923 41.6107 3.07719 41.4677 3.64157C41.318 4.20595 41.0729 5.21376 40.9163 5.87891C40.7597 6.54407 40.3512 8.25063 40.004 9.67501C39.65 11.0994 39.2347 12.8059 39.0781 13.4711C38.9215 14.1363 38.6424 15.2852 38.4654 16.0242C38.2816 16.7633 38.0093 17.8988 37.8527 18.5438C37.6961 19.1888 37.451 20.2167 37.3012 20.8281C37.1514 21.4395 36.9336 22.313 36.8247 22.7766C36.7089 23.2402 36.3413 24.7519 36.0009 26.1359C35.6605 27.52 35.1771 29.5155 34.9252 30.5703C34.6733 31.6252 34.3125 33.1167 34.1219 33.8961C33.9312 34.6688 33.5091 36.3955 33.1892 37.7258C32.8692 39.0561 32.4062 40.9441 32.168 41.925C31.9297 42.9059 31.562 44.4177 31.351 45.2844C31.1399 46.1511 30.7859 47.6023 30.5681 48.5094C30.3434 49.4164 29.9009 51.2305 29.5877 52.5406C29.2677 53.8508 28.8592 55.5439 28.6686 56.3031C28.1989 58.1978 26.6875 64.4395 26.2109 66.4484C26.102 66.912 25.7956 68.1617 25.5301 69.2367C25.2646 70.305 24.8493 72.0116 24.6042 73.0261C24.3659 74.0339 24.1345 74.9813 24.1004 75.1223C24.0187 75.418 24.0255 75.4113 22.5346 76.2578C19.3076 78.092 17.8302 79.4559 17.3196 81.0617C17.1086 81.7336 17.0337 82.7817 17.1494 83.3931C17.6056 85.7111 20.1177 86.7122 22.1874 85.402C22.7865 85.0191 23.4945 84.1658 23.9575 83.2588C24.4136 82.3719 24.5838 81.7873 25.4008 78.4078C26.0339 75.7606 26.6126 73.4158 26.6398 73.3956C26.6534 73.3822 26.9258 73.4158 27.2389 73.4695C29.1724 73.8055 31.7118 73.9331 33.2436 73.7786C37.7505 73.315 41.3792 70.9634 42.7068 67.6242C43.0472 66.7777 43.1629 66.1394 43.1629 65.1383C43.1629 64.1708 43.1153 63.8013 42.7749 62.1148C42.557 61.0533 42.523 60.7778 42.523 59.8641L42.5162 58.8227L42.843 58.0299C43.1834 57.1766 43.2378 56.8138 43.0676 56.4106C42.9519 56.1419 42.6047 55.8664 42.2779 55.7858C41.9851 55.7119 41.7945 55.4095 41.5971 54.6839C41.4269 54.0658 41.4201 53.2192 41.563 52.1308C41.849 50.0009 42.5774 48.8453 43.6259 48.8453C43.9731 48.8453 44.2795 48.7311 44.579 48.4758C44.8854 48.2205 45.0488 47.8711 45.1032 47.3605C45.2258 46.1511 45.4096 45.4389 46.0632 43.7055C46.2946 43.0739 46.5397 42.3214 46.601 42.0258C46.744 41.3539 46.744 40.1109 46.6078 39.4727C45.927 36.2947 43.1221 33.7147 39.5206 32.9488C38.9079 32.8144 37.4578 32.7539 36.9336 32.8413C36.7089 32.8749 36.5115 32.895 36.4979 32.8816C36.4638 32.848 37.4442 28.8033 37.4986 28.7495C37.5259 28.7294 37.805 28.6286 38.1182 28.5278C40.2559 27.8559 41.8422 26.5727 42.7476 24.8056C43.4625 23.4149 43.8029 21.4866 43.6463 19.7867C43.4625 17.892 43.0132 16.2594 41.8558 13.377L41.4405 12.3491L41.6243 11.6302C42.1145 9.66157 42.5843 7.70641 42.8634 6.52392C43.0336 5.79829 43.2923 4.73672 43.4489 4.16563C43.9254 2.39188 43.8846 1.42439 43.2923 0.718918C42.7953 0.127663 41.6243 -0.147804 40.6099 0.0940704ZM40.9776 16.9178C41.4677 18.5034 41.7196 20.0824 41.6311 21.0969C41.4541 23.2334 40.6984 24.7788 39.3981 25.6925C38.9351 26.015 38.1318 26.4316 38.0773 26.3778C38.0569 26.3644 38.1046 26.0956 38.1795 25.7866C39.2687 21.2716 40.5078 16.1922 40.5555 16.0309C40.6167 15.8294 40.6916 15.9839 40.9776 16.9178ZM39.2007 34.9106C42.4957 35.5758 45.0351 38.5455 44.6539 41.28C44.6062 41.6227 44.4224 42.2475 44.1365 43.0269C43.585 44.5252 43.3263 45.3919 43.1834 46.2317L43.0744 46.8767L42.7204 46.9573C41.8081 47.1589 40.855 48.0256 40.3036 49.1477C39.7249 50.3167 39.4526 51.7209 39.4526 53.4813C39.4594 54.4084 39.4798 54.6839 39.6091 55.1609C39.8202 55.9403 40.2287 56.7398 40.5963 57.0959L40.8959 57.3848L40.6916 57.9694C40.5078 58.4867 40.4806 58.6681 40.4533 59.4945C40.4193 60.5158 40.4533 60.8047 40.821 62.6792C41.2907 65.1047 41.2499 66.0453 40.6031 67.3555C39.9632 68.6522 38.4722 70.0161 36.8791 70.7686C34.4895 71.9041 31.3033 72.1594 27.6883 71.5144C27.1913 71.427 27.096 71.3867 27.1232 71.2927C27.1436 71.2322 27.5453 69.5995 28.0151 67.6578C28.4848 65.7161 28.9478 63.7878 29.0567 63.3713L29.2405 62.6188L30.3638 62.5919C31.5688 62.5583 32.2292 62.4508 33.1075 62.1216C35.9532 61.0533 37.7165 58.5472 37.7165 55.5708C37.7165 53.6828 37.0561 51.9427 35.8443 50.6728C34.9593 49.7322 34.1423 49.2619 32.6854 48.8655C32.5764 48.8386 32.556 48.9528 33.053 46.9305C33.2572 46.0772 33.5023 45.0828 33.5908 44.7133C33.761 43.9944 34.4759 41.0448 34.932 39.1838C35.0818 38.5656 35.3541 37.4234 35.5447 36.6508C35.7286 35.8714 35.9124 35.1928 35.9396 35.1391C36.0962 34.8502 38.1931 34.7024 39.2007 34.9106ZM32.8624 51.0088C33.7678 51.338 34.6052 52.1241 35.0954 53.1117C35.4903 53.9045 35.6128 54.3547 35.6537 55.2953C35.7149 56.5181 35.4699 57.4319 34.8231 58.3859C34.224 59.2795 33.1211 60.0522 31.9637 60.3948C31.2965 60.5964 29.7511 60.7106 29.7511 60.5628C29.7511 60.5292 30.5749 57.0959 31.0038 55.3625C31.174 54.6772 31.4803 53.4073 31.6914 52.5406C31.9024 51.6739 32.0863 50.9214 32.0999 50.8744C32.1339 50.7803 32.3177 50.8072 32.8624 51.0088ZM23.3515 78.1995C23.3515 78.3809 22.6435 81.0886 22.4733 81.5723C22.0444 82.775 21.2955 83.7627 20.6964 83.9172C20.0769 84.0784 19.5799 83.9105 19.3008 83.4402C19.185 83.252 19.1646 83.0975 19.1646 82.5063C19.1714 81.8545 19.185 81.7672 19.3893 81.3506C19.7841 80.5511 20.8802 79.5903 22.6231 78.5288C23.2699 78.1323 23.3515 78.0988 23.3515 78.1995Z" fill="#845902"/>
<path d="M28.015 20.4317C21.8129 20.9625 16.101 23.1931 11.3422 26.9422C5.03792 31.9073 1.0416 39.0494 0.163364 46.8969C-0.0613008 48.9259 -0.0272607 51.7411 0.245061 53.7836C0.844168 58.3389 2.49171 62.6658 5.05834 66.4484C7.53647 70.0967 10.9677 73.2881 14.8415 75.5523C15.8082 76.1167 17.7621 77.0775 18.7289 77.4672L19.4505 77.7561L19.9203 77.4202C20.179 77.232 20.6147 76.9364 20.887 76.7617C21.1593 76.587 21.3772 76.4392 21.3636 76.4258C21.35 76.4123 20.9006 76.2377 20.356 76.0361C13.7999 73.6039 8.35343 68.8672 5.14685 62.8069C3.56738 59.8305 2.64149 56.928 2.16493 53.4678C1.95388 51.9695 1.94026 48.328 2.13089 46.8633C2.71638 42.4423 4.12564 38.6395 6.52207 35.0047C9.007 31.2288 12.6697 27.8895 16.6729 25.7395C20.5466 23.6567 24.4544 22.575 29.0703 22.2995C31.0923 22.1786 33.5295 22.3331 35.7762 22.7363C36.0758 22.79 36.3345 22.8169 36.3549 22.7967C36.3753 22.7833 36.4842 22.3667 36.6 21.883L36.811 20.9961L36.4638 20.9155C35.9124 20.7878 33.7542 20.4989 32.7875 20.425C31.7527 20.3444 28.9886 20.3511 28.015 20.4317Z" fill="#845902"/>
<path d="M43.7416 23.3947C43.728 23.4417 43.6123 23.7508 43.4965 24.0867C43.3808 24.4159 43.2446 24.7586 43.1902 24.8392C43.1357 24.9198 43.0949 25.0206 43.0949 25.0542C43.0949 25.0945 43.3944 25.2759 43.7621 25.4573C51.0398 29.1527 56.4454 35.9856 58.304 43.8398C58.8146 46.0234 58.9848 47.5419 58.9848 50.0211C58.9916 52.3995 58.8214 53.9986 58.3721 55.9873C56.3501 64.8695 49.9914 72.2669 41.3929 75.7405C38.3701 76.9633 35.4086 77.6083 31.9025 77.8166C30.3843 77.9039 28.4576 77.83 26.8985 77.6284C26.4696 77.5747 26.102 77.5545 26.0748 77.5814C25.9658 77.6956 25.6186 79.3619 25.6935 79.382C25.7344 79.4022 26.1088 79.4559 26.5173 79.5097C29.2065 79.8658 32.556 79.8188 35.4018 79.382C44.2114 78.0181 52.0951 72.7708 56.7041 65.2055C60.183 59.508 61.5855 52.9034 60.7209 46.2989C59.8631 39.6877 56.7246 33.5266 51.85 28.8705C50.468 27.5469 49.1812 26.5256 47.5405 25.4439C45.8385 24.3219 43.8029 23.22 43.7416 23.3947Z" fill="#845902"/>
<path d="M34.1082 27.352C30.1732 27.9903 28.5257 28.4539 26.6262 29.4348C24.8085 30.3755 23.2903 31.7864 22.5346 33.2511C22.1261 34.0439 21.9219 34.7561 21.0028 38.5656C20.7168 39.7414 20.4581 40.5544 20.1041 41.3338C19.8182 41.9788 19.7773 42.2139 19.8726 42.57C19.9816 42.9798 20.213 43.2755 20.6488 43.5577C21.0981 43.8533 21.2615 44.122 21.384 44.7738C21.6291 46.0638 20.6283 49.0267 19.5935 50.0816C19.2531 50.4309 19.185 50.4713 19.0148 50.4309C18.3272 50.2563 17.8847 50.3436 17.5647 50.7064C17.3128 50.9819 17.2447 51.2439 17.1562 52.2248C17.1154 52.7153 17.0337 53.1453 16.9452 53.367C16.7205 53.9247 16.1895 54.7444 15.3725 55.7791C13.9633 57.573 13.4322 58.48 13.0918 59.7095C12.9284 60.2941 12.908 60.4889 12.908 61.4094C12.908 62.9077 13.1803 64.0431 13.8748 65.4339C15.2976 68.2961 17.8779 70.4394 21.7312 71.9511C22.5754 72.2803 24.0732 72.7641 24.2502 72.7641C24.3591 72.7641 24.8153 70.9567 24.7336 70.8761C24.6995 70.8492 24.4068 70.7484 24.0664 70.6477C23.1677 70.3789 21.7244 69.8078 20.8598 69.3845C19.1442 68.538 17.4286 67.1673 16.5231 65.9244C15.1683 64.07 14.6236 61.873 15.0866 60.1127C15.2636 59.4341 15.7742 58.5741 16.7886 57.2505C18.0277 55.6245 18.2728 55.2684 18.6268 54.5294C18.9399 53.8709 19.1306 53.2595 19.1306 52.8766C19.1306 52.5608 19.1782 52.507 19.5663 52.413C20.0633 52.292 20.3764 52.1106 20.853 51.6672C21.5746 51.002 22.0784 50.2159 22.5959 48.9259C23.2358 47.347 23.4469 46.4266 23.4537 45.2844C23.4537 44.5923 23.4264 44.3572 23.2903 43.9406C23.0724 43.2352 22.7729 42.7178 22.3916 42.3617C22.2078 42.1938 22.058 42.0325 22.058 41.9989C22.058 41.972 22.1329 41.7638 22.2282 41.542C22.521 40.8298 22.8478 39.6608 23.2835 37.793C23.7532 35.7908 24.1277 34.568 24.4544 34.0036C25.5097 32.1492 27.6134 30.8256 30.8404 29.9858C31.5008 29.8178 32.1203 29.6969 33.4887 29.4886C34.224 29.3811 34.8435 29.2669 34.8707 29.24C34.9048 29.1997 35.4018 27.2781 35.4018 27.1706C35.4018 27.1572 35.3813 27.1505 35.3541 27.1505C35.3201 27.1572 34.7618 27.2445 34.1082 27.352Z" fill="#845902"/>
<path d="M33.1211 34.0506C30.7995 35.2667 28.6141 37.4436 26.7487 40.4133C24.9378 43.2755 23.0724 47.5755 22.3303 50.572C21.9695 52.0367 21.8878 52.6952 21.8946 54.3211C21.8946 55.7052 21.9082 55.8395 22.0784 56.4644C22.6707 58.6412 24.3251 60.6838 26.2994 61.6848C26.6194 61.8461 26.9053 61.9603 26.9326 61.9334C26.9734 61.8931 27.4432 60.0388 27.4159 60.0253C27.4091 60.0253 27.1572 59.8775 26.8577 59.6961C25.4552 58.8495 24.2638 57.1497 23.9711 55.5977C23.9302 55.3827 23.8962 54.7914 23.8962 54.2942C23.903 52.4062 24.2978 50.6459 25.3327 47.9383C27.3615 42.617 29.8328 38.8478 32.7126 36.6709L33.1823 36.3148L33.4751 35.1391C33.6317 34.4941 33.7542 33.9095 33.7474 33.8491C33.7338 33.7483 33.6317 33.7819 33.1211 34.0506Z" fill="#845902"/>
<path d="M29.5809 49.0066C27.7359 49.5844 26.2245 51.0692 25.7071 52.8094C25.2033 54.4823 25.8841 56.5517 27.2934 57.6805C27.5521 57.882 27.7904 58.05 27.8312 58.05C27.9129 58.05 27.9265 58.003 28.2261 56.7667L28.4167 55.9806L28.2261 55.7656C27.8517 55.3222 27.5725 54.5697 27.5725 53.9986C27.5725 53.0983 28.2601 51.9964 29.2133 51.3716L29.5877 51.1297L29.8464 50.0547C29.9894 49.4634 30.0915 48.9528 30.0779 48.9192C30.0643 48.8856 29.8464 48.9259 29.5809 49.0066Z" fill="#845902"/>
</g>
<defs>
<clipPath id="clip0_25_2">
<rect width="61" height="86" fill="white"/>
</clipPath>
</defs>
</svg>
